# xmcd CD database file
#
# Track frame offsets:
#	150
#	10882
#	26035
#	53262
#	70362
#	85352
#	99462
#	114912
#	127597
#	145555
#	160022
#	179860
#
# Disc length: 2581 seconds
#
# Revision: 1
# Processed by: cddbd v1.5.2PL0 Copyright (c) Steve Scherf et al.
# Submitted via: CDex 1.79
#
DISCID=900a130c
DTITLE=Don Edwards - Kin To The Wind - Memories Of Marty Robbins
DYEAR=2001
DGENRE=Country
TTITLE0=Saddle Tramp
TTITLE1=Begging To You
TTITLE2=San Angelo
TTITLE3=I'm Kin To The Wind
TTITLE4=Singing The Blues
TTITLE5=Old Red
TTITLE6=Man Walks Among Us
TTITLE7=I'll Step Aside
TTITLE8=Is There Anything Left I Can Say
TTITLE9=I'll Go On Alone
TTITLE10=Ghost Train
TTITLE11=The Best Part Of Living
EXTD=YEAR: 2001
EXTT0=
EXTT1=
EXTT2=
EXTT3=
EXTT4=
EXTT5=
EXTT6=
EXTT7=
EXTT8=
EXTT9=
EXTT10=
EXTT11=
PLAYORDER=
